<?xml version="1.0" encoding="UTF-8" standalone="no"?>
<!DOCTYPE svg PUBLIC "-//W3C//DTD SVG 1.1//EN"
 "http://www.w3.org/Graphics/SVG/1.1/DTD/svg11.dtd">
<!-- Generated by graphviz version 13.1.2 (20250808.2320)
 -->
<!-- Pages: 1 -->
<svg width="497pt" height="302pt"
 viewBox="0.00 0.00 497.00 302.00" xmlns="http://www.w3.org/2000/svg" xmlns:xlink="http://www.w3.org/1999/xlink">
<g id="graph0" class="graph" transform="scale(1 1) rotate(0) translate(4 297.63)">
<polygon fill="white" stroke="none" points="-4,4 -4,-297.63 492.74,-297.63 492.74,4 -4,4"/>
<g id="node1" class="node">
<title></title>
</g>
<!-- q0 -->
<g id="node2" class="node">
<title>q0</title>
<ellipse fill="blue" stroke="blue" cx="112.12" cy="-133.13" rx="21.12" ry="21.12"/>
<text xml:space="preserve" text-anchor="middle" x="112.12" y="-127.71" font-family="Arial Bold" font-size="14.00" fill="white">q0</text>
</g>
<!-- &#45;&gt;q0 -->
<g id="edge1" class="edge">
<title>&#45;&gt;q0</title>
<path fill="none" stroke="black" d="M53.85,-133.13C61.88,-133.13 70.83,-133.13 79.23,-133.13"/>
<polygon fill="black" stroke="black" points="79.06,-136.63 89.06,-133.13 79.06,-129.63 79.06,-136.63"/>
</g>
<!-- q0&#45;&gt;q0 -->
<g id="edge4" class="edge">
<title>q0&#45;&gt;q0</title>
<path fill="none" stroke="black" d="M104.91,-153.26C103.92,-163.3 106.32,-172.26 112.12,-172.26 115.57,-172.26 117.82,-169.1 118.87,-164.43"/>
<polygon fill="black" stroke="black" points="122.35,-164.91 119.27,-154.77 115.36,-164.62 122.35,-164.91"/>
<text xml:space="preserve" text-anchor="middle" x="112.12" y="-175.46" font-family="Times New Roman,serif" font-size="14.00">b</text>
</g>
<!-- q1 -->
<g id="node3" class="node">
<title>q1</title>
<ellipse fill="green" stroke="green" cx="200.37" cy="-133.13" rx="21.12" ry="21.12"/>
<ellipse fill="none" stroke="green" cx="200.37" cy="-133.13" rx="25.12" ry="25.12"/>
<text xml:space="preserve" text-anchor="middle" x="200.37" y="-127.71" font-family="Arial Bold" font-size="14.00">q1</text>
</g>
<!-- q0&#45;&gt;q1 -->
<g id="edge3" class="edge">
<title>q0&#45;&gt;q1</title>
<path fill="none" stroke="black" d="M133.56,-133.13C142.54,-133.13 153.35,-133.13 163.59,-133.13"/>
<polygon fill="black" stroke="black" points="163.27,-136.63 173.27,-133.13 163.27,-129.63 163.27,-136.63"/>
<text xml:space="preserve" text-anchor="middle" x="154.25" y="-136.33" font-family="Times New Roman,serif" font-size="14.00">a</text>
</g>
<!-- q_D -->
<g id="node6" class="node">
<title>q_D</title>
<ellipse fill="red" stroke="red" cx="461.13" cy="-206.13" rx="27.61" ry="27.61"/>
<text xml:space="preserve" text-anchor="middle" x="461.13" y="-200.71" font-family="Arial Bold" font-size="14.00" fill="white">q_D</text>
</g>
<!-- q0&#45;&gt;q_D -->
<g id="edge5" class="edge">
<title>q0&#45;&gt;q_D</title>
<path fill="none" stroke="black" d="M115.9,-154.38C122.46,-194.43 142.84,-277.13 199.37,-277.13 199.37,-277.13 199.37,-277.13 372.39,-277.13 399.29,-277.13 422.57,-256.72 438.37,-237.78"/>
<polygon fill="black" stroke="black" points="440.93,-240.2 444.37,-230.18 435.43,-235.86 440.93,-240.2"/>
<text xml:space="preserve" text-anchor="middle" x="288.38" y="-280.33" font-family="Times New Roman,serif" font-size="14.00">ε</text>
</g>
<!-- q3 -->
<g id="node4" class="node">
<title>q3</title>
<ellipse fill="none" stroke="black" cx="371.39" cy="-133.13" rx="20.13" ry="20.13"/>
<text xml:space="preserve" text-anchor="middle" x="371.39" y="-128.08" font-family="Times New Roman,serif" font-size="14.00">q3</text>
</g>
<!-- q1&#45;&gt;q3 -->
<g id="edge6" class="edge">
<title>q1&#45;&gt;q3</title>
<path fill="none" stroke="black" d="M224.49,-141.02C230.65,-143.07 237.31,-145.23 243.5,-147.13 254.42,-150.49 256.92,-152.56 268.25,-154.13 285.97,-156.59 290.78,-156.59 308.51,-154.13 319.81,-152.56 331.79,-148.98 342.17,-145.22"/>
<polygon fill="black" stroke="black" points="343.22,-148.56 351.28,-141.69 340.69,-142.04 343.22,-148.56"/>
<text xml:space="preserve" text-anchor="middle" x="288.38" y="-159.17" font-family="Times New Roman,serif" font-size="14.00">a</text>
</g>
<!-- q2 -->
<g id="node5" class="node">
<title>q2</title>
<ellipse fill="none" stroke="black" cx="288.38" cy="-20.13" rx="20.13" ry="20.13"/>
<text xml:space="preserve" text-anchor="middle" x="288.38" y="-15.08" font-family="Times New Roman,serif" font-size="14.00">q2</text>
</g>
<!-- q1&#45;&gt;q2 -->
<g id="edge7" class="edge">
<title>q1&#45;&gt;q2</title>
<path fill="none" stroke="black" d="M209.62,-109.23C216.63,-91.39 228.03,-67.16 243.5,-49.63 248.36,-44.12 254.47,-39.17 260.58,-34.97"/>
<polygon fill="black" stroke="black" points="262.13,-38.13 268.71,-29.83 258.39,-32.22 262.13,-38.13"/>
<text xml:space="preserve" text-anchor="middle" x="246.87" y="-52.83" font-family="Times New Roman,serif" font-size="14.00">b</text>
</g>
<!-- q1&#45;&gt;q_D -->
<g id="edge8" class="edge">
<title>q1&#45;&gt;q_D</title>
<path fill="none" stroke="black" d="M220.27,-148.76C233.01,-158.38 250.65,-170.01 268.25,-176.13 319.62,-194.01 382.44,-201.27 421.88,-204.19"/>
<polygon fill="black" stroke="black" points="421.61,-207.68 431.82,-204.87 422.08,-200.7 421.61,-207.68"/>
<text xml:space="preserve" text-anchor="middle" x="329.88" y="-195.8" font-family="Times New Roman,serif" font-size="14.00">ε</text>
</g>
<!-- q3&#45;&gt;q1 -->
<g id="edge12" class="edge">
<title>q3&#45;&gt;q1</title>
<path fill="none" stroke="black" d="M351.04,-133.13C323.31,-133.13 271.78,-133.13 237.03,-133.13"/>
<polygon fill="black" stroke="black" points="237.46,-129.63 227.46,-133.13 237.46,-136.63 237.46,-129.63"/>
<text xml:space="preserve" text-anchor="middle" x="288.38" y="-136.33" font-family="Times New Roman,serif" font-size="14.00">a</text>
</g>
<!-- q3&#45;&gt;q1 -->
<g id="edge13" class="edge">
<title>q3&#45;&gt;q1</title>
<path fill="none" stroke="black" d="M352.36,-125.46C340.22,-120.71 323.7,-115.08 308.51,-112.63 290.84,-109.78 285.94,-109.98 268.25,-112.63 257.22,-114.28 245.51,-117.39 235.01,-120.69"/>
<polygon fill="black" stroke="black" points="234.01,-117.33 225.63,-123.81 236.22,-123.97 234.01,-117.33"/>
<text xml:space="preserve" text-anchor="middle" x="288.38" y="-115.83" font-family="Times New Roman,serif" font-size="14.00">b</text>
</g>
<!-- q3&#45;&gt;q_D -->
<g id="edge14" class="edge">
<title>q3&#45;&gt;q_D</title>
<path fill="none" stroke="black" d="M387.27,-145.51C399.1,-155.35 416,-169.42 430.56,-181.52"/>
<polygon fill="black" stroke="black" points="428.16,-184.08 438.08,-187.79 432.63,-178.7 428.16,-184.08"/>
<text xml:space="preserve" text-anchor="middle" x="412.52" y="-170.64" font-family="Times New Roman,serif" font-size="14.00">ε</text>
</g>
<!-- q2&#45;&gt;q0 -->
<g id="edge9" class="edge">
<title>q2&#45;&gt;q0</title>
<path fill="none" stroke="black" d="M269.14,-27.26C261.13,-30.59 251.71,-34.77 243.5,-39.13 211.73,-56 204.42,-61.59 175.25,-82.63 162.48,-91.84 148.85,-102.79 137.61,-112.13"/>
<polygon fill="black" stroke="black" points="135.38,-109.44 129.97,-118.56 139.88,-114.8 135.38,-109.44"/>
<text xml:space="preserve" text-anchor="middle" x="200.37" y="-85.83" font-family="Times New Roman,serif" font-size="14.00">a</text>
</g>
<!-- q2&#45;&gt;q3 -->
<g id="edge10" class="edge">
<title>q2&#45;&gt;q3</title>
<path fill="none" stroke="black" d="M306.94,-28.87C315.75,-33.95 326.06,-41.06 333.26,-49.63 346.32,-65.18 355.6,-86.05 361.62,-103.03"/>
<polygon fill="black" stroke="black" points="358.16,-103.71 364.63,-112.1 364.8,-101.51 358.16,-103.71"/>
<text xml:space="preserve" text-anchor="middle" x="329.88" y="-52.83" font-family="Times New Roman,serif" font-size="14.00">b</text>
</g>
<!-- q2&#45;&gt;q_D -->
<g id="edge11" class="edge">
<title>q2&#45;&gt;q_D</title>
<path fill="none" stroke="black" d="M307.89,-26.78C315.95,-30.01 325.34,-34.26 333.26,-39.13 361.96,-56.78 369.8,-61.88 391.52,-87.63 412.98,-113.07 431.49,-146.13 443.85,-170.86"/>
<polygon fill="black" stroke="black" points="440.56,-172.1 448.1,-179.54 446.85,-169.02 440.56,-172.1"/>
<text xml:space="preserve" text-anchor="middle" x="371.39" y="-90.83" font-family="Times New Roman,serif" font-size="14.00">ε</text>
</g>
<!-- q_D&#45;&gt;q_D -->
<g id="edge2" class="edge">
<title>q_D&#45;&gt;q_D</title>
<path fill="none" stroke="black" d="M452.07,-232.38C451.56,-242.91 454.58,-251.74 461.13,-251.74 465.12,-251.74 467.8,-248.46 469.17,-243.52"/>
<polygon fill="black" stroke="black" points="472.63,-244.16 470.05,-233.89 465.66,-243.53 472.63,-244.16"/>
<text xml:space="preserve" text-anchor="middle" x="461.13" y="-254.94" font-family="Times New Roman,serif" font-size="14.00">a,b</text>
</g>
</g>
</svg>
